<svg width="1162" height="642" viewBox="0 0 1162 642" fill="none" xmlns="http://www.w3.org/2000/svg">
<g clip-path="url(#clip0_224_9)">
<path d="M1162 306.301V178.81L963.212 343.575L764.425 178.81V306.301L963.212 471.066L1162.02 306.301H1162ZM0 198.122H102.529V267.47H104.324C113.893 245.848 130.554 226.792 154.255 210.285C179.022 193.442 208.432 184.781 238.364 185.515C266.525 185.515 290.654 190.476 310.767 200.38C329.967 209.584 346.869 222.968 360.237 239.553C373.299 256.089 382.927 275.072 388.552 295.387C394.575 316.463 397.613 338.281 397.575 360.202V630.341H289.646V390.839C289.62 377.577 288.718 364.33 286.946 351.187C285.387 338.121 281.431 325.455 275.274 313.828C269.352 302.812 260.857 293.393 250.514 286.372C240.004 279.154 226.077 275.561 208.699 275.561C193.072 275.149 177.596 278.716 163.722 285.928C151.59 292.428 140.995 301.494 132.673 312.476C124.361 323.733 118.123 336.385 114.252 349.836C110.07 363.705 107.94 378.113 107.929 392.601V630.324H0V198.122Z" fill="#E60036"/>
<path d="M1162 515.577V643.068L963.231 478.285L764.443 643.068V515.559L963.231 350.794L1162.04 515.559L1162 515.577Z" fill="#00A6EB"/>
<path d="M635.016 198.122H527.07V630.358H635.016V198.139V198.122ZM647.439 66.6623C647.439 79.8468 643.534 92.7353 636.216 103.698C628.899 114.66 618.499 123.205 606.33 128.25C594.162 133.296 580.772 134.616 567.855 132.044C554.937 129.471 543.071 123.122 533.758 113.8C524.445 104.477 518.103 92.5986 515.533 79.6674C512.964 66.7362 514.282 53.3327 519.323 41.1517C524.363 28.9708 532.898 18.5596 543.849 11.2346C554.8 3.90967 567.675 0 580.846 0C598.508 0 615.446 7.02333 627.935 19.5249C640.423 32.0265 647.439 48.9823 647.439 66.6623V66.6623Z" fill="#E60036"/>
</g>
<defs>
<clipPath id="clip0_224_9">
<rect width="1162" height="642" fill="white"/>
</clipPath>
</defs>
</svg>
